<?xml version="1.0" encoding="UTF-8" standalone="no"?>
<svg width="100" height="100" viewBox="0 0 100 100" fill="none" xmlns="http://www.w3.org/2000/svg">
  <path d="M20 15C20 12.2386 22.2386 10 25 10H35C37.7614 10 40 12.2386 40 15V40H60V15C60 12.2386 62.2386 10 65 10H75C77.7614 10 80 12.2386 80 15V40C80 51.0457 71.0457 60 60 60H40C28.9543 60 20 51.0457 20 40V15Z" stroke="white" stroke-width="4" stroke-linecap="round" stroke-linejoin="round"/>
  <path d="M20 85C20 87.7614 22.2386 90 25 90H35C37.7614 90 40 87.7614 40 85V60H60V85C60 87.7614 62.2386 90 65 90H75C77.7614 90 80 87.7614 80 85V60" stroke="white" stroke-width="4" stroke-linecap="round" stroke-linejoin="round"/>
</svg>